<?xml version="1.0" encoding="UTF-8"?>
<svg xmlns="http://www.w3.org/2000/svg" xmlns:xlink="http://www.w3.org/1999/xlink" width="375pt" height="374.999991pt" viewBox="0 0 375 374.999991" version="1.2">
<defs>
<clipPath id="clip1">
  <path d="M 37.5 91 L 337.5 91 L 337.5 283.703125 L 37.5 283.703125 Z M 37.5 91 "/>
</clipPath>
</defs>
<g id="surface1">
<rect x="0" y="0" width="375" height="374.999991" style="fill:rgb(100%,100%,100%);fill-opacity:1;stroke:none;"/>
<rect x="0" y="0" width="375" height="374.999991" style="fill:rgb(100%,100%,100%);fill-opacity:1;stroke:none;"/>
<rect x="0" y="0" width="375" height="374.999991" style="fill:rgb(14.509583%,38.819885%,92.158508%);fill-opacity:1;stroke:none;"/>
<g clip-path="url(#clip1)" clip-rule="nonzero">
<path style=" stroke:none;fill-rule:evenodd;fill:rgb(100%,100%,100%);fill-opacity:1;" d="M 161.496094 91.261719 C 163.910156 91.429688 166.304688 91.742188 168.679688 92.203125 C 171.054688 92.660156 173.394531 93.265625 175.695312 94.007812 C 178 94.753906 180.246094 95.636719 182.441406 96.65625 C 184.632812 97.675781 186.757812 98.828125 188.808594 100.105469 C 190.863281 101.386719 192.828125 102.785156 194.710938 104.304688 C 196.59375 105.824219 198.375 107.453125 200.054688 109.191406 C 201.734375 110.929688 203.304688 112.761719 204.761719 114.691406 C 206.21875 116.621094 207.550781 118.632812 208.761719 120.722656 L 225.558594 149.765625 L 226.167969 146.160156 C 226.65625 144.347656 227.273438 142.578125 228.019531 140.855469 C 228.765625 139.132812 229.636719 137.476562 230.628906 135.882812 C 231.621094 134.289062 232.726562 132.773438 233.941406 131.34375 C 235.160156 129.910156 236.472656 128.574219 237.886719 127.339844 C 239.300781 126.101562 240.796875 124.972656 242.378906 123.953125 C 243.957031 122.9375 245.605469 122.039062 247.316406 121.265625 C 249.03125 120.492188 250.792969 119.847656 252.597656 119.332031 C 254.40625 118.8125 256.242188 118.433594 258.109375 118.1875 C 259.972656 117.945312 261.84375 117.835938 263.726562 117.867188 C 265.605469 117.898438 267.472656 118.066406 269.328125 118.371094 C 271.183594 118.675781 273.007812 119.117188 274.796875 119.691406 C 276.589844 120.265625 278.328125 120.96875 280.011719 121.796875 C 281.699219 122.628906 283.316406 123.578125 284.863281 124.648438 C 286.410156 125.714844 287.867188 126.890625 289.238281 128.175781 C 290.613281 129.457031 291.882812 130.835938 293.050781 132.304688 C 294.222656 133.777344 295.273438 135.324219 296.214844 136.949219 L 332.371094 199.457031 C 333 200.539062 333.570312 201.652344 334.085938 202.789062 C 334.605469 203.929688 335.0625 205.09375 335.464844 206.277344 C 335.867188 207.460938 336.210938 208.664062 336.496094 209.882812 C 336.78125 211.101562 337.003906 212.328125 337.167969 213.570312 C 337.332031 214.808594 337.433594 216.054688 337.472656 217.304688 C 337.515625 218.554688 337.496094 219.804688 337.414062 221.054688 C 337.332031 222.300781 337.1875 223.542969 336.984375 224.777344 C 336.777344 226.011719 336.515625 227.230469 336.1875 228.441406 C 335.863281 229.648438 335.480469 230.835938 335.039062 232.007812 C 334.597656 233.179688 334.101562 234.324219 333.546875 235.445312 C 332.992188 236.570312 332.382812 237.660156 331.722656 238.722656 C 331.058594 239.785156 330.347656 240.8125 329.582031 241.804688 C 328.820312 242.796875 328.011719 243.75 327.152344 244.664062 C 326.296875 245.574219 325.398438 246.445312 324.457031 247.269531 C 323.511719 248.09375 322.53125 248.871094 321.515625 249.597656 C 320.496094 250.328125 319.441406 251.003906 318.359375 251.628906 C 317.273438 252.253906 316.160156 252.824219 315.015625 253.339844 C 313.875 253.855469 312.710938 254.316406 311.523438 254.71875 C 310.339844 255.121094 309.132812 255.460938 307.914062 255.746094 C 306.695312 256.03125 305.460938 256.253906 304.21875 256.417969 C 302.976562 256.578125 301.730469 256.679688 300.476562 256.722656 C 299.226562 256.761719 297.972656 256.742188 296.722656 256.660156 C 295.472656 256.578125 294.230469 256.433594 292.992188 256.230469 C 291.757812 256.027344 290.53125 255.761719 289.324219 255.4375 C 288.113281 255.117188 286.921875 254.734375 285.75 254.292969 C 284.574219 253.851562 283.425781 253.355469 282.304688 252.800781 C 281.179688 252.246094 280.085938 251.640625 279.023438 250.980469 C 277.957031 250.320312 276.929688 249.605469 275.933594 248.84375 C 274.941406 248.082031 273.984375 247.273438 273.070312 246.421875 C 272.15625 245.566406 271.285156 244.667969 270.460938 243.726562 C 269.636719 242.785156 268.855469 241.804688 268.128906 240.789062 C 267.398438 239.773438 266.71875 238.722656 266.09375 237.640625 L 259.117188 225.730469 L 259.117188 228.375 C 259.003906 229.941406 258.828125 231.5 258.59375 233.050781 C 258.355469 234.601562 258.058594 236.140625 257.699219 237.667969 C 257.339844 239.195312 256.917969 240.707031 256.4375 242.199219 C 255.960938 243.691406 255.421875 245.164062 254.824219 246.617188 C 254.226562 248.070312 253.574219 249.492188 252.863281 250.894531 C 252.152344 252.292969 251.386719 253.660156 250.566406 255 C 249.746094 256.339844 248.875 257.644531 247.953125 258.914062 C 247.03125 260.183594 246.058594 261.414062 245.035156 262.605469 C 244.015625 263.796875 242.945312 264.949219 241.832031 266.054688 C 240.722656 267.164062 239.566406 268.222656 238.367188 269.238281 C 237.171875 270.257812 235.933594 271.222656 234.660156 272.140625 C 233.386719 273.058594 232.074219 273.925781 230.730469 274.738281 C 229.390625 275.550781 228.015625 276.3125 226.609375 277.015625 C 225.207031 277.722656 223.777344 278.371094 222.320312 278.960938 C 220.867188 279.550781 219.386719 280.085938 217.890625 280.558594 C 216.390625 281.035156 214.878906 281.449219 213.347656 281.800781 C 211.816406 282.15625 210.273438 282.449219 208.71875 282.679688 C 207.164062 282.910156 205.601562 283.082031 204.035156 283.1875 C 202.46875 283.296875 200.898438 283.339844 199.324219 283.324219 C 197.753906 283.308594 196.1875 283.226562 194.621094 283.085938 C 193.054688 282.945312 191.5 282.742188 189.949219 282.476562 C 188.398438 282.210938 186.863281 281.886719 185.339844 281.5 C 183.816406 281.113281 182.3125 280.664062 180.824219 280.160156 C 179.335938 279.652344 177.871094 279.089844 176.429688 278.464844 C 174.988281 277.84375 173.570312 277.164062 172.183594 276.429688 C 170.796875 275.695312 169.4375 274.90625 168.113281 274.0625 C 166.785156 273.21875 165.496094 272.324219 164.242188 271.382812 C 162.988281 270.4375 161.773438 269.441406 160.597656 268.402344 C 159.421875 267.359375 158.289062 266.273438 157.203125 265.140625 C 156.113281 264.011719 155.070312 262.835938 154.074219 261.625 C 153.078125 260.410156 152.132812 259.15625 151.238281 257.867188 C 150.34375 256.578125 149.5 255.257812 148.710938 253.902344 L 138.105469 235.636719 L 137.039062 241.957031 C 136.554688 243.769531 135.9375 245.539062 135.191406 247.261719 C 134.441406 248.984375 133.574219 250.640625 132.578125 252.238281 C 131.585938 253.832031 130.484375 255.34375 129.265625 256.777344 C 128.050781 258.207031 126.734375 259.542969 125.320312 260.78125 C 123.90625 262.019531 122.410156 263.144531 120.832031 264.164062 C 119.25 265.179688 117.605469 266.078125 115.890625 266.851562 C 114.179688 267.625 112.417969 268.273438 110.609375 268.789062 C 108.800781 269.304688 106.964844 269.683594 105.101562 269.929688 C 103.238281 270.175781 101.363281 270.28125 99.484375 270.25 C 97.601562 270.21875 95.734375 270.050781 93.878906 269.746094 C 92.023438 269.441406 90.203125 269 88.410156 268.425781 C 86.621094 267.851562 84.882812 267.148438 83.195312 266.320312 C 81.507812 265.488281 79.894531 264.539062 78.347656 263.472656 C 76.800781 262.402344 75.339844 261.226562 73.96875 259.941406 C 72.597656 258.660156 71.328125 257.28125 70.15625 255.8125 C 68.988281 254.339844 67.933594 252.792969 66.996094 251.167969 L 42.574219 209.066406 C 42.019531 208.121094 41.507812 207.15625 41.035156 206.164062 C 40.5625 205.175781 40.136719 204.167969 39.75 203.140625 C 39.367188 202.113281 39.027344 201.074219 38.730469 200.015625 C 38.4375 198.960938 38.1875 197.894531 37.984375 196.820312 C 37.78125 195.742188 37.625 194.65625 37.515625 193.566406 C 37.40625 192.476562 37.34375 191.382812 37.328125 190.289062 C 37.3125 189.191406 37.347656 188.097656 37.425781 187.003906 C 37.503906 185.910156 37.628906 184.824219 37.804688 183.742188 C 37.976562 182.660156 38.195312 181.585938 38.460938 180.523438 C 38.726562 179.460938 39.039062 178.410156 39.394531 177.375 C 39.75 176.335938 40.152344 175.316406 40.59375 174.316406 C 41.039062 173.3125 41.527344 172.332031 42.054688 171.371094 C 42.582031 170.410156 43.152344 169.472656 43.761719 168.5625 C 44.371094 167.652344 45.019531 166.769531 45.703125 165.910156 C 46.390625 165.054688 47.109375 164.230469 47.867188 163.4375 C 48.625 162.644531 49.414062 161.882812 50.238281 161.15625 C 51.058594 160.429688 51.910156 159.742188 52.792969 159.089844 C 53.675781 158.4375 54.582031 157.824219 55.519531 157.25 C 56.453125 156.671875 57.410156 156.140625 58.390625 155.648438 C 59.371094 155.15625 60.375 154.707031 61.394531 154.300781 C 62.414062 153.894531 63.449219 153.53125 64.5 153.214844 C 65.550781 152.898438 66.613281 152.625 67.6875 152.398438 C 68.761719 152.171875 69.84375 151.992188 70.933594 151.859375 C 72.023438 151.726562 73.113281 151.640625 74.210938 151.601562 C 75.308594 151.5625 76.40625 151.570312 77.503906 151.625 C 78.597656 151.683594 79.691406 151.785156 80.777344 151.933594 C 81.867188 152.082031 82.945312 152.277344 84.015625 152.519531 C 85.085938 152.761719 86.144531 153.046875 87.191406 153.382812 C 88.238281 153.714844 89.265625 154.089844 90.28125 154.511719 C 91.292969 154.933594 92.289062 155.398438 93.261719 155.90625 C 94.234375 156.410156 95.183594 156.957031 96.109375 157.546875 C 97.035156 158.136719 97.9375 158.761719 98.808594 159.429688 L 98.40625 157.6875 C 98.269531 156.605469 98.164062 155.519531 98.089844 154.433594 C 98.011719 153.347656 97.964844 152.257812 97.949219 151.167969 C 97.933594 150.078125 97.949219 148.988281 97.992188 147.898438 C 98.039062 146.808594 98.113281 145.722656 98.21875 144.636719 C 98.320312 143.550781 98.457031 142.46875 98.621094 141.390625 C 98.785156 140.316406 98.980469 139.242188 99.203125 138.175781 C 99.425781 137.109375 99.679688 136.046875 99.964844 134.996094 C 100.246094 133.941406 100.558594 132.898438 100.898438 131.863281 C 101.238281 130.824219 101.605469 129.800781 102.003906 128.785156 C 102.402344 127.769531 102.824219 126.765625 103.277344 125.773438 C 103.730469 124.78125 104.210938 123.800781 104.71875 122.835938 C 105.222656 121.871094 105.757812 120.917969 106.316406 119.984375 C 106.875 119.046875 107.460938 118.128906 108.070312 117.222656 C 108.683594 116.320312 109.316406 115.433594 109.976562 114.5625 C 110.636719 113.695312 111.320312 112.84375 112.023438 112.011719 C 112.730469 111.183594 113.460938 110.371094 114.210938 109.578125 C 114.964844 108.789062 115.734375 108.019531 116.53125 107.269531 C 117.324219 106.523438 118.136719 105.796875 118.972656 105.09375 C 119.804688 104.386719 120.660156 103.707031 121.53125 103.050781 C 122.402344 102.394531 123.292969 101.761719 124.199219 101.15625 C 125.105469 100.546875 126.027344 99.964844 126.96875 99.410156 C 127.90625 98.851562 128.859375 98.324219 129.828125 97.820312 C 130.796875 97.316406 131.777344 96.835938 132.773438 96.386719 C 133.769531 95.9375 134.773438 95.515625 135.792969 95.121094 C 136.8125 94.726562 137.839844 94.359375 138.878906 94.023438 C 139.914062 93.683594 140.960938 93.375 142.019531 93.097656 C 143.074219 92.816406 144.136719 92.566406 145.207031 92.34375 C 146.273438 92.125 147.347656 91.929688 148.429688 91.769531 C 149.507812 91.605469 150.59375 91.476562 151.679688 91.371094 C 152.765625 91.269531 153.855469 91.199219 154.949219 91.15625 C 156.039062 91.113281 157.128906 91.101562 158.222656 91.121094 C 159.3125 91.136719 160.40625 91.183594 161.496094 91.261719 Z M 161.496094 91.261719 "/>
</g>
</g>
</svg>
