<?xml version="1.0" encoding="UTF-8"?>
<svg xmlns="http://www.w3.org/2000/svg" xmlns:xlink="http://www.w3.org/1999/xlink" width="375pt" height="374.999991pt" viewBox="0 0 375 374.999991" version="1.2">
<g id="surface1">
<path style=" stroke:none;fill-rule:evenodd;fill:rgb(100%,100%,100%);fill-opacity:1;" d="M 154.992188 67.203125 C 158.011719 67.414062 161.003906 67.804688 163.972656 68.378906 C 166.945312 68.957031 169.867188 69.710938 172.746094 70.644531 C 175.625 71.578125 178.433594 72.683594 181.175781 73.960938 C 183.917969 75.238281 186.570312 76.679688 189.136719 78.28125 C 191.703125 79.886719 194.164062 81.640625 196.515625 83.542969 C 198.863281 85.449219 201.09375 87.488281 203.195312 89.664062 C 205.296875 91.84375 207.257812 94.140625 209.078125 96.558594 C 210.898438 98.972656 212.566406 101.492188 214.078125 104.113281 L 235.074219 140.503906 L 235.835938 135.988281 C 236.445312 133.714844 237.214844 131.5 238.148438 129.339844 C 239.082031 127.183594 240.171875 125.105469 241.410156 123.105469 C 242.652344 121.109375 244.03125 119.214844 245.554688 117.421875 C 247.074219 115.625 248.71875 113.953125 250.484375 112.402344 C 252.25 110.851562 254.121094 109.4375 256.097656 108.164062 C 258.074219 106.890625 260.132812 105.765625 262.273438 104.796875 C 264.414062 103.824219 266.613281 103.015625 268.875 102.371094 C 271.132812 101.722656 273.429688 101.246094 275.761719 100.941406 C 278.089844 100.632812 280.429688 100.496094 282.78125 100.535156 C 285.132812 100.574219 287.46875 100.785156 289.785156 101.167969 C 292.105469 101.550781 294.382812 102.101562 296.621094 102.824219 C 298.859375 103.542969 301.03125 104.421875 303.140625 105.460938 C 305.25 106.503906 307.269531 107.691406 309.203125 109.03125 C 311.136719 110.371094 312.960938 111.84375 314.675781 113.449219 C 316.390625 115.058594 317.980469 116.785156 319.441406 118.625 C 320.902344 120.46875 322.21875 122.410156 323.394531 124.445312 L 368.589844 202.761719 C 369.371094 204.121094 370.085938 205.511719 370.734375 206.941406 C 371.378906 208.367188 371.953125 209.824219 372.457031 211.308594 C 372.960938 212.792969 373.390625 214.296875 373.746094 215.824219 C 374.101562 217.351562 374.382812 218.890625 374.585938 220.445312 C 374.789062 222 374.917969 223.558594 374.96875 225.125 C 375.019531 226.691406 374.992188 228.257812 374.890625 229.820312 C 374.789062 231.386719 374.609375 232.941406 374.351562 234.488281 C 374.097656 236.03125 373.765625 237.5625 373.363281 239.078125 C 372.957031 240.589844 372.476562 242.082031 371.925781 243.546875 C 371.371094 245.015625 370.75 246.449219 370.058594 247.855469 C 369.363281 249.261719 368.605469 250.628906 367.777344 251.960938 C 366.949219 253.292969 366.058594 254.578125 365.105469 255.820312 C 364.152344 257.066406 363.136719 258.257812 362.066406 259.402344 C 360.996094 260.546875 359.871094 261.636719 358.695312 262.667969 C 357.515625 263.703125 356.289062 264.675781 355.015625 265.585938 C 353.742188 266.5 352.429688 267.347656 351.070312 268.132812 C 349.714844 268.914062 348.324219 269.628906 346.894531 270.277344 C 345.46875 270.921875 344.015625 271.496094 342.53125 272 C 341.046875 272.503906 339.542969 272.933594 338.019531 273.289062 C 336.492188 273.644531 334.953125 273.925781 333.398438 274.128906 C 331.847656 274.335938 330.289062 274.460938 328.722656 274.511719 C 327.15625 274.5625 325.59375 274.539062 324.027344 274.433594 C 322.464844 274.332031 320.910156 274.152344 319.367188 273.898438 C 317.820312 273.640625 316.292969 273.3125 314.777344 272.90625 C 313.265625 272.5 311.777344 272.019531 310.308594 271.46875 C 308.84375 270.914062 307.410156 270.292969 306.003906 269.597656 C 304.597656 268.90625 303.230469 268.144531 301.902344 267.316406 C 300.570312 266.488281 299.285156 265.597656 298.042969 264.644531 C 296.800781 263.6875 295.609375 262.675781 294.464844 261.605469 C 293.320312 260.53125 292.234375 259.40625 291.199219 258.230469 C 290.167969 257.050781 289.195312 255.824219 288.285156 254.550781 C 287.371094 253.277344 286.523438 251.960938 285.742188 250.601562 L 277.019531 235.679688 L 277.019531 238.996094 C 276.878906 240.957031 276.660156 242.910156 276.363281 244.851562 C 276.070312 246.796875 275.695312 248.722656 275.246094 250.636719 C 274.796875 252.550781 274.273438 254.445312 273.671875 256.316406 C 273.074219 258.1875 272.402344 260.035156 271.65625 261.851562 C 270.910156 263.667969 270.089844 265.457031 269.203125 267.210938 C 268.316406 268.960938 267.359375 270.675781 266.335938 272.355469 C 265.308594 274.03125 264.21875 275.667969 263.066406 277.257812 C 261.910156 278.847656 260.695312 280.390625 259.417969 281.882812 C 258.144531 283.378906 256.808594 284.816406 255.417969 286.207031 C 254.027344 287.59375 252.582031 288.925781 251.085938 290.195312 C 249.589844 291.46875 248.042969 292.679688 246.449219 293.832031 C 244.855469 294.980469 243.21875 296.066406 241.539062 297.085938 C 239.859375 298.105469 238.144531 299.058594 236.386719 299.941406 C 234.632812 300.824219 232.847656 301.636719 231.027344 302.375 C 229.207031 303.117188 227.359375 303.785156 225.488281 304.378906 C 223.617188 304.972656 221.722656 305.492188 219.808594 305.933594 C 217.894531 306.378906 215.964844 306.746094 214.023438 307.035156 C 212.078125 307.324219 210.128906 307.539062 208.167969 307.671875 C 206.207031 307.808594 204.246094 307.863281 202.28125 307.84375 C 200.316406 307.824219 198.355469 307.722656 196.402344 307.546875 C 194.445312 307.367188 192.496094 307.113281 190.5625 306.78125 C 188.625 306.449219 186.707031 306.042969 184.800781 305.558594 C 182.898438 305.070312 181.015625 304.511719 179.15625 303.878906 C 177.296875 303.242188 175.464844 302.535156 173.664062 301.757812 C 171.859375 300.976562 170.089844 300.125 168.355469 299.203125 C 166.617188 298.285156 164.921875 297.296875 163.265625 296.238281 C 161.609375 295.183594 159.996094 294.0625 158.429688 292.878906 C 156.859375 291.695312 155.339844 290.449219 153.871094 289.144531 C 152.402344 287.839844 150.988281 286.480469 149.625 285.0625 C 148.265625 283.644531 146.964844 282.175781 145.71875 280.652344 C 144.476562 279.132812 143.292969 277.5625 142.171875 275.949219 C 141.054688 274.335938 140 272.675781 139.011719 270.976562 L 125.753906 248.09375 L 124.425781 256.011719 C 123.816406 258.285156 123.046875 260.5 122.113281 262.660156 C 121.179688 264.816406 120.089844 266.894531 118.851562 268.890625 C 117.609375 270.890625 116.230469 272.785156 114.707031 274.578125 C 113.1875 276.375 111.542969 278.046875 109.777344 279.597656 C 108.011719 281.148438 106.140625 282.5625 104.164062 283.835938 C 102.1875 285.109375 100.128906 286.234375 97.988281 287.203125 C 95.847656 288.175781 93.648438 288.984375 91.386719 289.628906 C 89.125 290.277344 86.832031 290.753906 84.5 291.058594 C 82.171875 291.367188 79.828125 291.5 77.480469 291.464844 C 75.128906 291.425781 72.792969 291.214844 70.476562 290.832031 C 68.15625 290.449219 65.878906 289.894531 63.640625 289.175781 C 61.402344 288.457031 59.226562 287.578125 57.121094 286.535156 C 55.011719 285.496094 52.992188 284.308594 51.058594 282.96875 C 49.125 281.628906 47.300781 280.15625 45.585938 278.546875 C 43.871094 276.941406 42.28125 275.214844 40.820312 273.371094 C 39.359375 271.53125 38.042969 269.589844 36.867188 267.554688 L 6.34375 214.804688 C 5.652344 213.621094 5.007812 212.40625 4.417969 211.167969 C 3.828125 209.925781 3.292969 208.664062 2.8125 207.378906 C 2.332031 206.09375 1.90625 204.789062 1.539062 203.464844 C 1.171875 202.144531 0.859375 200.808594 0.605469 199.457031 C 0.351562 198.109375 0.15625 196.75 0.0195312 195.382812 C -0.117188 194.015625 -0.195312 192.648438 -0.214844 191.273438 C -0.234375 189.902344 -0.191406 188.53125 -0.09375 187.160156 C 0.00390625 185.792969 0.164062 184.429688 0.378906 183.074219 C 0.597656 181.71875 0.871094 180.371094 1.203125 179.039062 C 1.535156 177.707031 1.921875 176.390625 2.367188 175.09375 C 2.8125 173.792969 3.3125 172.515625 3.867188 171.261719 C 4.421875 170.007812 5.03125 168.777344 5.691406 167.574219 C 6.355469 166.371094 7.066406 165.195312 7.828125 164.054688 C 8.589844 162.914062 9.398438 161.804688 10.253906 160.734375 C 11.113281 159.660156 12.015625 158.628906 12.960938 157.632812 C 13.90625 156.636719 14.894531 155.6875 15.921875 154.777344 C 16.949219 153.867188 18.015625 153.003906 19.117188 152.183594 C 20.21875 151.367188 21.355469 150.597656 22.523438 149.878906 C 23.691406 149.160156 24.890625 148.488281 26.113281 147.875 C 27.339844 147.257812 28.589844 146.691406 29.867188 146.183594 C 31.140625 145.675781 32.433594 145.222656 33.746094 144.824219 C 35.0625 144.425781 36.390625 144.085938 37.730469 143.800781 C 39.074219 143.519531 40.425781 143.292969 41.789062 143.128906 C 43.152344 142.960938 44.519531 142.851562 45.890625 142.804688 C 47.261719 142.753906 48.632812 142.765625 50.003906 142.835938 C 51.375 142.902344 52.738281 143.03125 54.097656 143.21875 C 55.457031 143.40625 56.808594 143.648438 58.144531 143.953125 C 59.484375 144.257812 60.808594 144.617188 62.113281 145.035156 C 63.421875 145.449219 64.710938 145.921875 65.976562 146.449219 C 67.242188 146.976562 68.484375 147.558594 69.703125 148.195312 C 70.917969 148.828125 72.105469 149.515625 73.261719 150.253906 C 74.421875 150.988281 75.546875 151.777344 76.636719 152.609375 L 76.132812 150.429688 C 75.964844 149.074219 75.832031 147.714844 75.734375 146.351562 C 75.640625 144.988281 75.582031 143.625 75.5625 142.257812 C 75.542969 140.894531 75.5625 139.527344 75.617188 138.164062 C 75.671875 136.796875 75.765625 135.4375 75.898438 134.078125 C 76.027344 132.71875 76.195312 131.363281 76.402344 130.011719 C 76.605469 128.660156 76.851562 127.316406 77.128906 125.980469 C 77.410156 124.644531 77.726562 123.316406 78.078125 121.996094 C 78.433594 120.675781 78.820312 119.367188 79.246094 118.070312 C 79.671875 116.773438 80.132812 115.488281 80.628906 114.214844 C 81.125 112.941406 81.65625 111.683594 82.222656 110.441406 C 82.789062 109.199219 83.386719 107.972656 84.023438 106.761719 C 84.65625 105.554688 85.320312 104.359375 86.019531 103.1875 C 86.71875 102.015625 87.453125 100.863281 88.214844 99.730469 C 88.976562 98.597656 89.769531 97.488281 90.59375 96.398438 C 91.417969 95.308594 92.273438 94.242188 93.15625 93.203125 C 94.039062 92.160156 94.949219 91.144531 95.890625 90.152344 C 96.828125 89.160156 97.796875 88.195312 98.789062 87.257812 C 99.78125 86.320312 100.796875 85.410156 101.839844 84.53125 C 102.882812 83.648438 103.949219 82.796875 105.039062 81.972656 C 106.128906 81.152344 107.242188 80.359375 108.375 79.597656 C 109.507812 78.835938 110.660156 78.109375 111.835938 77.410156 C 113.007812 76.714844 114.199219 76.046875 115.410156 75.417969 C 116.621094 74.785156 117.847656 74.1875 119.089844 73.625 C 120.335938 73.058594 121.59375 72.53125 122.867188 72.039062 C 124.136719 71.542969 125.421875 71.085938 126.722656 70.660156 C 128.019531 70.238281 129.328125 69.851562 130.648438 69.5 C 131.96875 69.148438 133.292969 68.835938 134.632812 68.558594 C 135.96875 68.28125 137.3125 68.039062 138.660156 67.835938 C 140.011719 67.632812 141.367188 67.46875 142.726562 67.339844 C 144.082031 67.210938 145.445312 67.121094 146.808594 67.070312 C 148.171875 67.015625 149.539062 67 150.902344 67.023438 C 152.269531 67.046875 153.632812 67.105469 154.992188 67.203125 Z M 154.992188 67.203125 "/>
</g>
</svg>
