<?xml version="1.0" encoding="UTF-8"?>
<svg xmlns="http://www.w3.org/2000/svg" xmlns:xlink="http://www.w3.org/1999/xlink" width="375pt" height="374.999991pt" viewBox="0 0 375 374.999991" version="1.2">
<g id="surface1">
<path style=" stroke:none;fill-rule:evenodd;fill:rgb(14.509583%,38.819885%,92.158508%);fill-opacity:1;" d="M 375 187.484375 C 375 184.414062 374.925781 181.347656 374.773438 178.28125 C 374.625 175.21875 374.398438 172.160156 374.097656 169.105469 C 373.796875 166.050781 373.421875 163.003906 372.96875 159.96875 C 372.519531 156.933594 371.996094 153.910156 371.398438 150.902344 C 370.796875 147.890625 370.125 144.898438 369.378906 141.921875 C 368.632812 138.945312 367.816406 135.988281 366.925781 133.050781 C 366.035156 130.113281 365.074219 127.203125 364.039062 124.3125 C 363.003906 121.421875 361.902344 118.558594 360.726562 115.726562 C 359.550781 112.890625 358.308594 110.085938 356.996094 107.3125 C 355.683594 104.535156 354.304688 101.796875 352.859375 99.089844 C 351.410156 96.382812 349.898438 93.714844 348.320312 91.082031 C 346.742188 88.449219 345.101562 85.855469 343.398438 83.304688 C 341.691406 80.753906 339.925781 78.246094 338.097656 75.78125 C 336.269531 73.316406 334.382812 70.898438 332.4375 68.523438 C 330.488281 66.152344 328.484375 63.828125 326.425781 61.554688 C 324.363281 59.28125 322.246094 57.058594 320.078125 54.890625 C 317.90625 52.71875 315.6875 50.605469 313.410156 48.542969 C 311.136719 46.484375 308.816406 44.480469 306.441406 42.53125 C 304.070312 40.585938 301.652344 38.699219 299.1875 36.871094 C 296.722656 35.042969 294.214844 33.273438 291.664062 31.570312 C 289.109375 29.863281 286.519531 28.222656 283.886719 26.644531 C 281.253906 25.070312 278.585938 23.554688 275.878906 22.109375 C 273.171875 20.664062 270.429688 19.285156 267.65625 17.972656 C 264.882812 16.660156 262.078125 15.417969 259.242188 14.242188 C 256.40625 13.066406 253.546875 11.964844 250.65625 10.929688 C 247.765625 9.894531 244.855469 8.933594 241.917969 8.042969 C 238.980469 7.152344 236.023438 6.332031 233.046875 5.585938 C 230.070312 4.84375 227.078125 4.167969 224.066406 3.570312 C 221.058594 2.972656 218.035156 2.449219 215 1.996094 C 211.960938 1.546875 208.917969 1.171875 205.863281 0.871094 C 202.808594 0.570312 199.75 0.34375 196.683594 0.195312 C 193.621094 0.0429688 190.554688 -0.03125 187.484375 -0.03125 C 184.414062 -0.03125 181.347656 0.0429688 178.28125 0.195312 C 175.21875 0.34375 172.160156 0.570312 169.105469 0.871094 C 166.050781 1.171875 163.003906 1.546875 159.96875 1.996094 C 156.933594 2.449219 153.910156 2.972656 150.902344 3.570312 C 147.890625 4.167969 144.898438 4.84375 141.921875 5.585938 C 138.945312 6.332031 135.988281 7.152344 133.050781 8.042969 C 130.113281 8.933594 127.203125 9.894531 124.3125 10.929688 C 121.421875 11.964844 118.558594 13.066406 115.726562 14.242188 C 112.890625 15.417969 110.085938 16.660156 107.3125 17.972656 C 104.535156 19.285156 101.796875 20.664062 99.089844 22.109375 C 96.382812 23.554688 93.714844 25.070312 91.082031 26.644531 C 88.449219 28.222656 85.855469 29.863281 83.304688 31.570312 C 80.753906 33.273438 78.246094 35.042969 75.78125 36.871094 C 73.316406 38.699219 70.898438 40.585938 68.523438 42.53125 C 66.152344 44.480469 63.828125 46.484375 61.554688 48.542969 C 59.28125 50.605469 57.058594 52.71875 54.890625 54.890625 C 52.71875 57.058594 50.605469 59.28125 48.542969 61.554688 C 46.484375 63.828125 44.480469 66.152344 42.53125 68.523438 C 40.585938 70.898438 38.699219 73.316406 36.871094 75.78125 C 35.042969 78.246094 33.273438 80.753906 31.570312 83.304688 C 29.863281 85.855469 28.222656 88.449219 26.644531 91.082031 C 25.070312 93.714844 23.554688 96.382812 22.109375 99.089844 C 20.664062 101.796875 19.285156 104.535156 17.972656 107.3125 C 16.660156 110.085938 15.417969 112.890625 14.242188 115.726562 C 13.066406 118.558594 11.964844 121.421875 10.929688 124.3125 C 9.894531 127.203125 8.933594 130.113281 8.042969 133.050781 C 7.152344 135.988281 6.332031 138.945312 5.585938 141.921875 C 4.84375 144.898438 4.167969 147.890625 3.570312 150.902344 C 2.972656 153.910156 2.449219 156.933594 1.996094 159.96875 C 1.546875 163.003906 1.171875 166.050781 0.871094 169.105469 C 0.570312 172.160156 0.34375 175.21875 0.195312 178.28125 C 0.0429688 181.347656 -0.03125 184.414062 -0.03125 187.484375 C -0.03125 190.554688 0.0429688 193.621094 0.195312 196.683594 C 0.34375 199.75 0.570312 202.808594 0.871094 205.863281 C 1.171875 208.917969 1.546875 211.960938 1.996094 215 C 2.449219 218.035156 2.972656 221.058594 3.570312 224.066406 C 4.167969 227.078125 4.84375 230.070312 5.585938 233.046875 C 6.332031 236.023438 7.152344 238.980469 8.042969 241.917969 C 8.933594 244.855469 9.894531 247.765625 10.929688 250.65625 C 11.964844 253.546875 13.066406 256.40625 14.242188 259.242188 C 15.417969 262.078125 16.660156 264.882812 17.972656 267.65625 C 19.285156 270.429688 20.664062 273.171875 22.109375 275.878906 C 23.554688 278.585938 25.070312 281.253906 26.644531 283.886719 C 28.222656 286.519531 29.863281 289.109375 31.570312 291.664062 C 33.273438 294.214844 35.042969 296.722656 36.871094 299.1875 C 38.699219 301.652344 40.585938 304.070312 42.53125 306.441406 C 44.480469 308.816406 46.484375 311.136719 48.542969 313.410156 C 50.605469 315.6875 52.71875 317.90625 54.890625 320.078125 C 57.058594 322.246094 59.28125 324.363281 61.554688 326.425781 C 63.828125 328.484375 66.152344 330.488281 68.523438 332.4375 C 70.898438 334.382812 73.316406 336.269531 75.78125 338.097656 C 78.246094 339.925781 80.753906 341.691406 83.304688 343.398438 C 85.855469 345.101562 88.449219 346.742188 91.082031 348.320312 C 93.714844 349.898438 96.382812 351.410156 99.089844 352.859375 C 101.796875 354.304688 104.535156 355.683594 107.3125 356.996094 C 110.085938 358.308594 112.890625 359.550781 115.726562 360.726562 C 118.558594 361.902344 121.421875 363.003906 124.3125 364.039062 C 127.203125 365.074219 130.113281 366.035156 133.050781 366.925781 C 135.988281 367.816406 138.945312 368.632812 141.921875 369.378906 C 144.898438 370.125 147.890625 370.796875 150.902344 371.398438 C 153.910156 371.996094 156.933594 372.519531 159.96875 372.96875 C 163.003906 373.421875 166.050781 373.796875 169.105469 374.097656 C 172.160156 374.398438 175.21875 374.625 178.28125 374.773438 C 181.347656 374.925781 184.414062 375 187.484375 375 L 375 375 L 375 320.085938 L 320.085938 320.085938 C 324.425781 315.738281 328.546875 311.191406 332.441406 306.441406 C 336.335938 301.691406 339.992188 296.761719 343.402344 291.65625 C 346.8125 286.546875 349.96875 281.285156 352.863281 275.867188 C 355.757812 270.449219 358.378906 264.90625 360.730469 259.230469 C 363.078125 253.558594 365.144531 247.78125 366.925781 241.90625 C 368.710938 236.027344 370.199219 230.078125 371.398438 224.058594 C 372.59375 218.035156 373.496094 211.96875 374.097656 205.859375 C 374.699219 199.75 375 193.625 375 187.484375 Z M 375 187.484375 "/>
<path style=" stroke:none;fill-rule:evenodd;fill:rgb(100%,100%,100%);fill-opacity:1;" d="M 284.648438 117.027344 C 283.804688 116.539062 282.9375 116.097656 282.050781 115.695312 C 281.160156 115.296875 280.253906 114.941406 279.332031 114.628906 C 278.410156 114.316406 277.472656 114.050781 276.523438 113.832031 C 275.574219 113.609375 274.617188 113.4375 273.652344 113.3125 C 272.683594 113.183594 271.714844 113.105469 270.742188 113.074219 C 269.769531 113.042969 268.792969 113.0625 267.824219 113.125 C 266.851562 113.191406 265.882812 113.300781 264.921875 113.460938 C 263.960938 113.621094 263.011719 113.824219 262.070312 114.078125 C 261.128906 114.332031 260.203125 114.628906 259.289062 114.972656 C 258.378906 115.316406 257.484375 115.703125 256.613281 116.132812 C 255.738281 116.5625 254.886719 117.035156 254.058594 117.550781 C 253.230469 118.066406 252.433594 118.617188 251.660156 119.210938 C 250.886719 119.804688 250.144531 120.433594 249.429688 121.097656 C 248.71875 121.765625 248.042969 122.464844 247.398438 123.195312 C 246.757812 123.925781 246.152344 124.6875 245.582031 125.480469 C 245.015625 126.269531 244.484375 127.089844 243.996094 127.933594 L 205.617188 194.328125 L 188.699219 165.0625 C 188.011719 163.878906 187.246094 162.746094 186.402344 161.667969 C 185.558594 160.589844 184.644531 159.574219 183.660156 158.621094 C 182.675781 157.667969 181.628906 156.789062 180.523438 155.980469 C 179.414062 155.175781 178.257812 154.445312 177.050781 153.796875 C 175.84375 153.152344 174.597656 152.589844 173.316406 152.113281 C 172.03125 151.636719 170.71875 151.253906 169.378906 150.960938 C 168.042969 150.664062 166.691406 150.464844 165.324219 150.359375 C 163.960938 150.25 162.59375 150.238281 161.226562 150.320312 C 159.855469 150.238281 158.488281 150.25 157.117188 150.359375 C 155.75 150.46875 154.394531 150.667969 153.054688 150.964844 C 151.714844 151.261719 150.402344 151.648438 149.113281 152.125 C 147.828125 152.601562 146.578125 153.167969 145.371094 153.816406 C 144.160156 154.46875 143.003906 155.199219 141.894531 156.011719 C 140.789062 156.820312 139.742188 157.707031 138.757812 158.660156 C 137.773438 159.617188 136.859375 160.636719 136.015625 161.71875 C 135.171875 162.804688 134.40625 163.9375 133.71875 165.128906 L 120.191406 188.539062 L 119.617188 187.546875 C 119.128906 186.703125 118.597656 185.882812 118.03125 185.089844 C 117.460938 184.296875 116.855469 183.535156 116.210938 182.800781 C 115.570312 182.066406 114.890625 181.367188 114.179688 180.699219 C 113.464844 180.03125 112.722656 179.402344 111.949219 178.804688 C 111.171875 178.210938 110.371094 177.65625 109.542969 177.140625 C 108.714844 176.625 107.859375 176.152344 106.984375 175.722656 C 106.109375 175.289062 105.214844 174.902344 104.300781 174.558594 C 103.386719 174.214844 102.460938 173.917969 101.515625 173.664062 C 100.574219 173.410156 99.621094 173.207031 98.660156 173.046875 C 97.695312 172.886719 96.726562 172.777344 95.753906 172.710938 C 94.777344 172.648438 93.804688 172.632812 92.828125 172.664062 C 91.851562 172.695312 90.882812 172.777344 89.914062 172.902344 C 88.945312 173.03125 87.988281 173.207031 87.035156 173.425781 C 86.085938 173.648438 85.148438 173.917969 84.222656 174.230469 C 83.300781 174.542969 82.394531 174.902344 81.503906 175.304688 C 80.613281 175.707031 79.746094 176.152344 78.902344 176.640625 C 78.058594 177.128906 77.238281 177.660156 76.445312 178.226562 C 75.652344 178.796875 74.886719 179.402344 74.152344 180.046875 C 73.417969 180.691406 72.71875 181.367188 72.050781 182.082031 C 71.386719 182.792969 70.753906 183.535156 70.160156 184.3125 C 69.566406 185.085938 69.011719 185.886719 68.496094 186.714844 C 67.980469 187.542969 67.507812 188.398438 67.074219 189.273438 C 66.644531 190.148438 66.257812 191.042969 65.914062 191.957031 C 65.570312 192.871094 65.269531 193.796875 65.019531 194.742188 C 64.765625 195.683594 64.558594 196.636719 64.402344 197.597656 C 64.242188 198.5625 64.128906 199.53125 64.066406 200.503906 C 64.003906 201.480469 63.988281 202.453125 64.019531 203.429688 C 64.050781 204.40625 64.128906 205.375 64.257812 206.34375 C 64.386719 207.3125 64.558594 208.269531 64.78125 209.222656 C 65.003906 210.171875 65.269531 211.109375 65.585938 212.035156 C 65.898438 212.957031 66.257812 213.867188 66.660156 214.753906 C 67.0625 215.644531 67.507812 216.511719 67.996094 217.355469 L 92.558594 259.925781 C 93.25 261.117188 94.019531 262.257812 94.867188 263.34375 C 95.714844 264.429688 96.632812 265.453125 97.621094 266.410156 C 98.613281 267.367188 99.664062 268.253906 100.777344 269.066406 C 101.890625 269.878906 103.054688 270.609375 104.269531 271.261719 C 105.484375 271.910156 106.738281 272.476562 108.03125 272.953125 C 109.320312 273.429688 110.640625 273.8125 111.988281 274.109375 C 113.335938 274.402344 114.695312 274.601562 116.066406 274.707031 C 117.441406 274.808594 118.816406 274.820312 120.191406 274.734375 C 121.566406 274.820312 122.941406 274.8125 124.316406 274.710938 C 125.691406 274.605469 127.050781 274.410156 128.398438 274.117188 C 129.746094 273.824219 131.066406 273.4375 132.359375 272.960938 C 133.652344 272.484375 134.90625 271.921875 136.121094 271.269531 C 137.335938 270.621094 138.5 269.886719 139.613281 269.074219 C 140.726562 268.261719 141.777344 267.375 142.765625 266.417969 C 143.753906 265.457031 144.675781 264.433594 145.519531 263.347656 C 146.367188 262.261719 147.136719 261.121094 147.824219 259.925781 L 161.226562 236.671875 L 178.015625 265.746094 C 178.707031 266.9375 179.476562 268.078125 180.324219 269.164062 C 181.171875 270.25 182.089844 271.273438 183.082031 272.230469 C 184.070312 273.1875 185.121094 274.074219 186.234375 274.886719 C 187.347656 275.699219 188.511719 276.429688 189.726562 277.082031 C 190.941406 277.730469 192.195312 278.296875 193.488281 278.773438 C 194.78125 279.25 196.101562 279.636719 197.445312 279.929688 C 198.792969 280.222656 200.152344 280.421875 201.527344 280.527344 C 202.902344 280.632812 204.273438 280.640625 205.648438 280.554688 C 207.027344 280.640625 208.398438 280.632812 209.773438 280.527344 C 211.148438 280.421875 212.507812 280.222656 213.855469 279.929688 C 215.199219 279.636719 216.519531 279.25 217.8125 278.773438 C 219.105469 278.296875 220.359375 277.730469 221.574219 277.082031 C 222.789062 276.429688 223.953125 275.699219 225.066406 274.886719 C 226.175781 274.074219 227.230469 273.1875 228.21875 272.230469 C 229.210938 271.273438 230.128906 270.25 230.976562 269.164062 C 231.824219 268.078125 232.59375 266.9375 233.285156 265.746094 L 295.617188 157.738281 C 296.105469 156.894531 296.546875 156.023438 296.949219 155.136719 C 297.351562 154.246094 297.707031 153.335938 298.019531 152.410156 C 298.332031 151.488281 298.597656 150.546875 298.816406 149.597656 C 299.035156 148.644531 299.210938 147.6875 299.335938 146.71875 C 299.460938 145.75 299.539062 144.777344 299.570312 143.800781 C 299.597656 142.828125 299.582031 141.851562 299.515625 140.878906 C 299.449219 139.902344 299.339844 138.933594 299.175781 137.972656 C 299.015625 137.007812 298.808594 136.054688 298.554688 135.113281 C 298.300781 134.171875 298.003906 133.242188 297.65625 132.328125 C 297.3125 131.417969 296.921875 130.523438 296.492188 129.648438 C 296.058594 128.773438 295.582031 127.917969 295.066406 127.089844 C 294.550781 126.261719 293.996094 125.460938 293.398438 124.6875 C 292.804688 123.914062 292.171875 123.171875 291.503906 122.457031 C 290.835938 121.746094 290.136719 121.070312 289.402344 120.425781 C 288.667969 119.78125 287.902344 119.175781 287.109375 118.609375 C 286.3125 118.042969 285.492188 117.511719 284.648438 117.027344 Z M 284.648438 117.027344 "/>
</g>
</svg>
